<svg xmlns="http://www.w3.org/2000/svg" viewBox="0 0 960 560">
  <defs>
    <linearGradient id="g2" x1="0" x2="1" y1="0" y2="1">
      <stop offset="0" stop-color="#6cf7ff"/>
      <stop offset="1" stop-color="#7c5cff"/>
    </linearGradient>
  </defs>
  <rect width="960" height="560" rx="28" fill="#0c1224" stroke="#7c5cff66"/>
  <g transform="translate(40,40)">
    <rect width="880" height="80" rx="12" fill="#111a36" stroke="#7c5cff33"/>
    <rect x="20" y="20" width="160" height="40" rx="10" fill="url(#g2)"/>
    <rect x="200" y="20" width="200" height="40" rx="10" fill="#0c1224" stroke="#7c5cff55"/>
  </g>
  <g transform="translate(40,150)">
    <rect width="540" height="320" rx="12" fill="#111a36" stroke="#7c5cff33"/>
    <polyline fill="none" stroke="url(#g2)" stroke-width="3"
      points="60,280 120,240 180,250 240,200 300,210 360,150 420,170 480,120"/>
    <rect x="580" y="0" width="340" height="320" rx="12" fill="#111a36" stroke="#7c5cff33"/>
    <rect x="620" y="30" width="260" height="24" rx="8" fill="#0c1224" stroke="#7c5cff55"/>
    <rect x="620" y="70" width="260" height="24" rx="8" fill="#0c1224" stroke="#7c5cff55"/>
    <rect x="620" y="110" width="260" height="24" rx="8" fill="#0c1224" stroke="#7c5cff55"/>
    <rect x="620" y="150" width="260" height="24" rx="8" fill="#0c1224" stroke="#7c5cff55"/>
  </g>
</svg>
